<svg width="267" height="60" viewBox="0 0 267 60" fill="none" xmlns="http://www.w3.org/2000/svg">
<circle cx="245.758" cy="24.6755" r="12.7867" stroke="#4E4E4E"/>
<rect x="225.379" y="0.5" width="40.7581" height="58.4736" rx="2.5" stroke="#4E4E4E"/>
<rect x="237.533" y="50.616" width="16.4501" height="3.79619" rx="1.89809" fill="#4E4E4E"/>
<rect x="169.231" y="0.5" width="40.7581" height="58.4736" rx="2.5" stroke="#4E4E4E"/>
<rect x="181.384" y="50.616" width="16.4501" height="3.79619" rx="1.89809" fill="#4E4E4E"/>
<rect x="113.082" y="0.5" width="40.7581" height="58.4736" rx="2.5" stroke="#4E4E4E"/>
<rect x="112.582" y="49.1058" width="41.7581" height="10.1232" rx="3" fill="#4E4E4E"/>
<rect x="125.236" y="51.8812" width="16.4501" height="3.79619" rx="1.89809" fill="white"/>
<rect x="56.9343" y="0.5" width="40.7581" height="58.4736" rx="2.5" stroke="#4E4E4E"/>
<rect x="60.2304" y="51.8812" width="16.4501" height="3.79619" rx="1.89809" fill="#4E4E4E"/>
<line x1="97.2691" y1="49.5022" x2="56.434" y2="49.5022" stroke="#4E4E4E"/>
<rect x="0.785645" y="0.5" width="40.7581" height="58.4736" rx="2.5" stroke="#FE6060"/>
<rect x="21.7978" y="51.8815" width="16.4501" height="3.79619" rx="1.89809" fill="#FE6060"/>
<line x1="41.1209" y1="49.5022" x2="0.285717" y2="49.5022" stroke="#FE6060"/>
</svg>
